<mxfile host="app.diagrams.net" modified="2023-02-20T09:26:45.295Z" agent="5.0 (Windows NT 10.0; Win64; x64) AppleWebKit/537.36 (KHTML, like Gecko) Chrome/107.0.0.0 Safari/537.36 Edg/107.0.1418.62" version="20.8.20" etag="rPVg2TpOandtraUM89tU" type="github">
  <diagram id="prtHgNgQTEPvFCAcTncT" name="缺陷权限流程图示">
    <mxGraphModel dx="1434" dy="796" grid="1" gridSize="10" guides="1" tooltips="1" connect="1" arrows="1" fold="1" page="1" pageScale="1" pageWidth="1169" pageHeight="827" math="0" shadow="0">
      <root>
        <mxCell id="0" />
        <mxCell id="1" parent="0" />
        <mxCell id="22" value="" style="group" parent="1" vertex="1" connectable="0">
          <mxGeometry x="120" y="80" width="900" height="560" as="geometry" />
        </mxCell>
        <mxCell id="2" value="" style="shape=table;startSize=0;container=1;collapsible=0;childLayout=tableLayout;" parent="22" vertex="1">
          <mxGeometry width="900" height="500" as="geometry" />
        </mxCell>
        <mxCell id="3" value="" style="shape=tableRow;horizontal=0;startSize=0;swimlaneHead=0;swimlaneBody=0;top=0;left=0;bottom=0;right=0;collapsible=0;dropTarget=0;fillColor=none;points=[[0,0.5],[1,0.5]];portConstraint=eastwest;" parent="2" vertex="1">
          <mxGeometry width="900" height="167" as="geometry" />
        </mxCell>
        <mxCell id="4" value="&lt;font style=&quot;font-size: 18px;&quot;&gt;缺陷权限流程图示&lt;/font&gt;" style="shape=partialRectangle;html=1;whiteSpace=wrap;connectable=0;overflow=hidden;fillColor=none;top=0;left=0;bottom=0;right=0;pointerEvents=1;rowspan=3;colspan=1;fontSize=18;spacing=16;fontStyle=1" parent="3" vertex="1">
          <mxGeometry width="50" height="500" as="geometry">
            <mxRectangle width="50" height="167" as="alternateBounds" />
          </mxGeometry>
        </mxCell>
        <mxCell id="5" value="质量小组" style="shape=partialRectangle;html=1;whiteSpace=wrap;connectable=0;overflow=hidden;fillColor=#d5e8d4;top=0;left=0;bottom=0;right=0;pointerEvents=1;spacing=8;fontSize=14;strokeColor=#82b366;" parent="3" vertex="1">
          <mxGeometry x="50" width="36" height="167" as="geometry">
            <mxRectangle width="36" height="167" as="alternateBounds" />
          </mxGeometry>
        </mxCell>
        <mxCell id="6" value="" style="shape=partialRectangle;html=1;whiteSpace=wrap;connectable=0;overflow=hidden;fillColor=#d5e8d4;top=0;left=0;bottom=0;right=0;pointerEvents=1;strokeColor=#82b366;" parent="3" vertex="1">
          <mxGeometry x="86" width="814" height="167" as="geometry">
            <mxRectangle width="814" height="167" as="alternateBounds" />
          </mxGeometry>
        </mxCell>
        <mxCell id="7" value="" style="shape=tableRow;horizontal=0;startSize=0;swimlaneHead=0;swimlaneBody=0;top=0;left=0;bottom=0;right=0;collapsible=0;dropTarget=0;fillColor=none;points=[[0,0.5],[1,0.5]];portConstraint=eastwest;" parent="2" vertex="1">
          <mxGeometry y="167" width="900" height="166" as="geometry" />
        </mxCell>
        <mxCell id="8" value="" style="shape=partialRectangle;html=1;whiteSpace=wrap;connectable=0;overflow=hidden;fillColor=none;top=0;left=0;bottom=0;right=0;pointerEvents=1;" parent="7" vertex="1" visible="0">
          <mxGeometry width="50" height="166" as="geometry">
            <mxRectangle width="50" height="166" as="alternateBounds" />
          </mxGeometry>
        </mxCell>
        <mxCell id="9" value="研发部门" style="shape=partialRectangle;html=1;whiteSpace=wrap;connectable=0;overflow=hidden;fillColor=#dae8fc;top=0;left=0;bottom=0;right=0;pointerEvents=1;spacing=8;fontSize=14;strokeColor=#6c8ebf;" parent="7" vertex="1">
          <mxGeometry x="50" width="36" height="166" as="geometry">
            <mxRectangle width="36" height="166" as="alternateBounds" />
          </mxGeometry>
        </mxCell>
        <mxCell id="10" value="" style="shape=partialRectangle;html=1;whiteSpace=wrap;connectable=0;overflow=hidden;fillColor=#dae8fc;top=0;left=0;bottom=0;right=0;pointerEvents=1;strokeColor=#6c8ebf;" parent="7" vertex="1">
          <mxGeometry x="86" width="814" height="166" as="geometry">
            <mxRectangle width="814" height="166" as="alternateBounds" />
          </mxGeometry>
        </mxCell>
        <mxCell id="11" value="" style="shape=tableRow;horizontal=0;startSize=0;swimlaneHead=0;swimlaneBody=0;top=0;left=0;bottom=0;right=0;collapsible=0;dropTarget=0;fillColor=none;points=[[0,0.5],[1,0.5]];portConstraint=eastwest;" parent="2" vertex="1">
          <mxGeometry y="333" width="900" height="167" as="geometry" />
        </mxCell>
        <mxCell id="12" value="" style="shape=partialRectangle;html=1;whiteSpace=wrap;connectable=0;overflow=hidden;fillColor=none;top=0;left=0;bottom=0;right=0;pointerEvents=1;" parent="11" vertex="1" visible="0">
          <mxGeometry width="50" height="167" as="geometry">
            <mxRectangle width="50" height="167" as="alternateBounds" />
          </mxGeometry>
        </mxCell>
        <mxCell id="13" value="产品经理" style="shape=partialRectangle;html=1;whiteSpace=wrap;connectable=0;overflow=hidden;fillColor=#ffe6cc;top=0;left=0;bottom=0;right=0;pointerEvents=1;spacing=8;fontSize=14;strokeColor=#d79b00;" parent="11" vertex="1">
          <mxGeometry x="50" width="36" height="167" as="geometry">
            <mxRectangle width="36" height="167" as="alternateBounds" />
          </mxGeometry>
        </mxCell>
        <mxCell id="14" value="" style="shape=partialRectangle;html=1;whiteSpace=wrap;connectable=0;overflow=hidden;fillColor=#ffe6cc;top=0;left=0;bottom=0;right=0;pointerEvents=1;strokeColor=#d79b00;" parent="11" vertex="1">
          <mxGeometry x="86" width="814" height="167" as="geometry">
            <mxRectangle width="814" height="167" as="alternateBounds" />
          </mxGeometry>
        </mxCell>
        <mxCell id="21" value="" style="rounded=0;whiteSpace=wrap;html=1;fontSize=14;dashed=1;" parent="22" vertex="1">
          <mxGeometry y="500" width="900" height="60" as="geometry" />
        </mxCell>
        <mxCell id="23" value="图例：" style="text;html=1;strokeColor=none;fillColor=none;align=center;verticalAlign=middle;whiteSpace=wrap;rounded=0;dashed=1;fontSize=14;fontStyle=1" parent="22" vertex="1">
          <mxGeometry x="10" y="515" width="60" height="30" as="geometry" />
        </mxCell>
        <mxCell id="24" value="&lt;font style=&quot;font-size: 12px;&quot;&gt;缺陷标准流程&lt;/font&gt;" style="rounded=1;whiteSpace=wrap;html=1;absoluteArcSize=1;arcSize=14;strokeWidth=2;fontSize=14;fillColor=#dae8fc;strokeColor=#6c8ebf;" parent="22" vertex="1">
          <mxGeometry x="90" y="507.5" width="80" height="45" as="geometry" />
        </mxCell>
        <mxCell id="27" value="已拒绝" style="rounded=1;whiteSpace=wrap;html=1;absoluteArcSize=1;arcSize=14;strokeWidth=2;fontSize=14;fillColor=#dae8fc;strokeColor=#6c8ebf;" parent="22" vertex="1">
          <mxGeometry x="640" y="229.75" width="80" height="45" as="geometry" />
        </mxCell>
        <mxCell id="41" style="edgeStyle=orthogonalEdgeStyle;html=1;exitX=1;exitY=0.5;exitDx=0;exitDy=0;entryX=0;entryY=0.5;entryDx=0;entryDy=0;fontSize=12;fillColor=#f8cecc;strokeColor=#000000;dashed=1;" parent="22" source="32" target="36" edge="1">
          <mxGeometry relative="1" as="geometry" />
        </mxCell>
        <mxCell id="32" value="已解决" style="rounded=1;whiteSpace=wrap;html=1;absoluteArcSize=1;arcSize=14;strokeWidth=2;fontSize=14;fillColor=#dae8fc;strokeColor=#6c8ebf;" parent="22" vertex="1">
          <mxGeometry x="380" y="227.5" width="80" height="45" as="geometry" />
        </mxCell>
        <mxCell id="38" style="edgeStyle=orthogonalEdgeStyle;html=1;exitX=0.5;exitY=0;exitDx=0;exitDy=0;entryX=0.5;entryY=1;entryDx=0;entryDy=0;fontSize=12;strokeWidth=2;" parent="22" target="35" edge="1">
          <mxGeometry relative="1" as="geometry">
            <mxPoint x="420" y="227.5" as="sourcePoint" />
          </mxGeometry>
        </mxCell>
        <mxCell id="35" value="已验证" style="rounded=1;whiteSpace=wrap;html=1;absoluteArcSize=1;arcSize=14;strokeWidth=2;fontSize=14;fillColor=#dae8fc;strokeColor=#6c8ebf;" parent="22" vertex="1">
          <mxGeometry x="380" y="60" width="80" height="45" as="geometry" />
        </mxCell>
        <mxCell id="36" value="重新打开" style="rounded=1;whiteSpace=wrap;html=1;absoluteArcSize=1;arcSize=14;strokeWidth=2;fontSize=14;fillColor=#dae8fc;strokeColor=#6c8ebf;" parent="22" vertex="1">
          <mxGeometry x="510" y="227.5" width="80" height="45" as="geometry" />
        </mxCell>
        <mxCell id="dTOIaPzAnfacTVlvx3Cz-57" value="" style="endArrow=classic;html=1;rounded=0;strokeColor=#000000;strokeWidth=2;" edge="1" parent="22">
          <mxGeometry width="50" height="50" relative="1" as="geometry">
            <mxPoint x="210" y="529.5" as="sourcePoint" />
            <mxPoint x="260" y="529.5" as="targetPoint" />
          </mxGeometry>
        </mxCell>
        <mxCell id="dTOIaPzAnfacTVlvx3Cz-58" value="主工作流" style="edgeLabel;html=1;align=center;verticalAlign=middle;resizable=0;points=[];" vertex="1" connectable="0" parent="dTOIaPzAnfacTVlvx3Cz-57">
          <mxGeometry x="-0.18" y="-12" relative="1" as="geometry">
            <mxPoint as="offset" />
          </mxGeometry>
        </mxCell>
        <mxCell id="dTOIaPzAnfacTVlvx3Cz-49" value="" style="endArrow=classic;html=1;rounded=0;strokeColor=#000000;strokeWidth=1;" edge="1" parent="22">
          <mxGeometry width="50" height="50" relative="1" as="geometry">
            <mxPoint x="295" y="529.5" as="sourcePoint" />
            <mxPoint x="345" y="529.5" as="targetPoint" />
          </mxGeometry>
        </mxCell>
        <mxCell id="dTOIaPzAnfacTVlvx3Cz-50" value="一般流程" style="edgeLabel;html=1;align=center;verticalAlign=middle;resizable=0;points=[];" vertex="1" connectable="0" parent="dTOIaPzAnfacTVlvx3Cz-49">
          <mxGeometry x="-0.18" y="-12" relative="1" as="geometry">
            <mxPoint as="offset" />
          </mxGeometry>
        </mxCell>
        <mxCell id="dTOIaPzAnfacTVlvx3Cz-52" value="" style="endArrow=classic;html=1;rounded=0;strokeColor=#000000;strokeWidth=1;dashed=1;" edge="1" parent="22">
          <mxGeometry width="50" height="50" relative="1" as="geometry">
            <mxPoint x="380" y="529.5" as="sourcePoint" />
            <mxPoint x="430" y="529.5" as="targetPoint" />
          </mxGeometry>
        </mxCell>
        <mxCell id="dTOIaPzAnfacTVlvx3Cz-53" value="回归检验" style="edgeLabel;html=1;align=center;verticalAlign=middle;resizable=0;points=[];" vertex="1" connectable="0" parent="dTOIaPzAnfacTVlvx3Cz-52">
          <mxGeometry x="-0.18" y="-12" relative="1" as="geometry">
            <mxPoint as="offset" />
          </mxGeometry>
        </mxCell>
        <mxCell id="dTOIaPzAnfacTVlvx3Cz-55" value="" style="endArrow=classic;html=1;rounded=0;strokeColor=#b85450;strokeWidth=1;fillColor=#f8cecc;" edge="1" parent="22">
          <mxGeometry width="50" height="50" relative="1" as="geometry">
            <mxPoint x="470" y="529.5" as="sourcePoint" />
            <mxPoint x="520" y="529.5" as="targetPoint" />
          </mxGeometry>
        </mxCell>
        <mxCell id="dTOIaPzAnfacTVlvx3Cz-56" value="抄送/授权" style="edgeLabel;html=1;align=center;verticalAlign=middle;resizable=0;points=[];" vertex="1" connectable="0" parent="dTOIaPzAnfacTVlvx3Cz-55">
          <mxGeometry x="-0.18" y="-12" relative="1" as="geometry">
            <mxPoint as="offset" />
          </mxGeometry>
        </mxCell>
        <mxCell id="dTOIaPzAnfacTVlvx3Cz-59" value="适用：流程实施兼容Redmine/TAPD/JIRA" style="text;html=1;strokeColor=none;fillColor=none;align=left;verticalAlign=middle;whiteSpace=wrap;rounded=0;dashed=1;fontSize=14;fontStyle=1" vertex="1" parent="22">
          <mxGeometry x="600" y="515" width="280" height="30" as="geometry" />
        </mxCell>
        <mxCell id="25" style="edgeStyle=none;html=1;exitX=1;exitY=0.5;exitDx=0;exitDy=0;exitPerimeter=0;entryX=0;entryY=0.5;entryDx=0;entryDy=0;fontSize=12;strokeWidth=2;" parent="1" source="15" target="20" edge="1">
          <mxGeometry relative="1" as="geometry" />
        </mxCell>
        <mxCell id="15" value="&lt;font style=&quot;font-size: 12px;&quot;&gt;(缺陷)已识别&lt;/font&gt;" style="strokeWidth=2;html=1;shape=mxgraph.flowchart.start_1;whiteSpace=wrap;fontSize=14;fillColor=#dae8fc;strokeColor=#6c8ebf;" parent="1" vertex="1">
          <mxGeometry x="240" y="140" width="80" height="45" as="geometry" />
        </mxCell>
        <mxCell id="30" style="edgeStyle=orthogonalEdgeStyle;html=1;exitX=1;exitY=0.5;exitDx=0;exitDy=0;entryX=0;entryY=0.5;entryDx=0;entryDy=0;fontSize=12;strokeWidth=2;" parent="1" source="16" edge="1">
          <mxGeometry relative="1" as="geometry">
            <mxPoint x="500" y="330.0000000000002" as="targetPoint" />
          </mxGeometry>
        </mxCell>
        <mxCell id="dTOIaPzAnfacTVlvx3Cz-45" style="edgeStyle=orthogonalEdgeStyle;rounded=0;orthogonalLoop=1;jettySize=auto;html=1;exitX=0.5;exitY=1;exitDx=0;exitDy=0;entryX=0;entryY=0.5;entryDx=0;entryDy=0;entryPerimeter=0;fillColor=#f8cecc;strokeColor=#b85450;" edge="1" parent="1" source="16" target="17">
          <mxGeometry relative="1" as="geometry" />
        </mxCell>
        <mxCell id="dTOIaPzAnfacTVlvx3Cz-47" value="cc-auth: pd/QA" style="edgeLabel;html=1;align=center;verticalAlign=middle;resizable=0;points=[];" vertex="1" connectable="0" parent="dTOIaPzAnfacTVlvx3Cz-45">
          <mxGeometry x="0.4109" y="1" relative="1" as="geometry">
            <mxPoint as="offset" />
          </mxGeometry>
        </mxCell>
        <mxCell id="16" value="已接受" style="rounded=1;whiteSpace=wrap;html=1;absoluteArcSize=1;arcSize=14;strokeWidth=2;fontSize=14;fillColor=#dae8fc;strokeColor=#6c8ebf;" parent="1" vertex="1">
          <mxGeometry x="370" y="307.5" width="80" height="45" as="geometry" />
        </mxCell>
        <mxCell id="26" style="edgeStyle=none;html=1;exitX=0.5;exitY=1;exitDx=0;exitDy=0;entryX=0.5;entryY=0;entryDx=0;entryDy=0;fontSize=12;strokeWidth=2;" parent="1" source="20" target="16" edge="1">
          <mxGeometry relative="1" as="geometry" />
        </mxCell>
        <mxCell id="29" style="edgeStyle=orthogonalEdgeStyle;html=1;exitX=0.5;exitY=0;exitDx=0;exitDy=0;entryX=0.5;entryY=0;entryDx=0;entryDy=0;fontSize=12;fillColor=#f8cecc;strokeColor=#b85450;" parent="1" source="20" target="27" edge="1">
          <mxGeometry relative="1" as="geometry">
            <Array as="points">
              <mxPoint x="410" y="100" />
              <mxPoint x="800" y="100" />
            </Array>
          </mxGeometry>
        </mxCell>
        <mxCell id="45" value="cc: pd/QA" style="edgeLabel;html=1;align=center;verticalAlign=middle;resizable=0;points=[];fontSize=12;" parent="29" vertex="1" connectable="0">
          <mxGeometry x="-0.3222" relative="1" as="geometry">
            <mxPoint as="offset" />
          </mxGeometry>
        </mxCell>
        <mxCell id="20" value="&lt;font style=&quot;font-size: 14px;&quot;&gt;缺陷录入&lt;/font&gt;" style="shape=parallelogram;html=1;strokeWidth=2;perimeter=parallelogramPerimeter;whiteSpace=wrap;rounded=1;arcSize=12;size=0.23;fontSize=12;" parent="1" vertex="1">
          <mxGeometry x="370" y="140" width="80" height="45" as="geometry" />
        </mxCell>
        <mxCell id="17" value="(缺陷)已关闭" style="strokeWidth=2;html=1;shape=mxgraph.flowchart.start_1;whiteSpace=wrap;fontSize=12;fillColor=#dae8fc;strokeColor=#6c8ebf;" parent="1" vertex="1">
          <mxGeometry x="760" y="472.25" width="80" height="45" as="geometry" />
        </mxCell>
        <mxCell id="28" style="edgeStyle=none;html=1;exitX=0.5;exitY=1;exitDx=0;exitDy=0;entryX=0.5;entryY=0;entryDx=0;entryDy=0;entryPerimeter=0;fontSize=12;strokeWidth=1;" parent="1" source="27" target="17" edge="1">
          <mxGeometry relative="1" as="geometry" />
        </mxCell>
        <mxCell id="39" style="edgeStyle=orthogonalEdgeStyle;html=1;exitX=1;exitY=0.5;exitDx=0;exitDy=0;entryX=0;entryY=0.5;entryDx=0;entryDy=0;entryPerimeter=0;fontSize=12;strokeWidth=2;" parent="1" source="35" target="17" edge="1">
          <mxGeometry relative="1" as="geometry">
            <Array as="points">
              <mxPoint x="740" y="162" />
              <mxPoint x="740" y="492" />
            </Array>
          </mxGeometry>
        </mxCell>
        <mxCell id="42" style="edgeStyle=orthogonalEdgeStyle;html=1;exitX=0.5;exitY=1;exitDx=0;exitDy=0;entryX=0;entryY=0.5;entryDx=0;entryDy=0;fontSize=12;fillColor=#f8cecc;strokeColor=#000000;dashed=1;" parent="1" source="36" target="16" edge="1">
          <mxGeometry relative="1" as="geometry">
            <Array as="points">
              <mxPoint x="670" y="390" />
              <mxPoint x="320" y="390" />
              <mxPoint x="320" y="330" />
            </Array>
          </mxGeometry>
        </mxCell>
        <mxCell id="44" value="N*" style="edgeLabel;html=1;align=center;verticalAlign=middle;resizable=0;points=[];fontSize=12;" parent="42" vertex="1" connectable="0">
          <mxGeometry x="-0.2074" relative="1" as="geometry">
            <mxPoint as="offset" />
          </mxGeometry>
        </mxCell>
        <mxCell id="dTOIaPzAnfacTVlvx3Cz-48" style="edgeStyle=orthogonalEdgeStyle;rounded=0;orthogonalLoop=1;jettySize=auto;html=1;exitX=0.5;exitY=1;exitDx=0;exitDy=0;entryX=0;entryY=0.5;entryDx=0;entryDy=0;entryPerimeter=0;strokeColor=#b85450;fillColor=#f8cecc;" edge="1" parent="1" source="36" target="17">
          <mxGeometry relative="1" as="geometry" />
        </mxCell>
      </root>
    </mxGraphModel>
  </diagram>
</mxfile>
